<svg xmlns="http://www.w3.org/2000/svg" xmlns:xlink="http://www.w3.org/1999/xlink" width="500" zoomAndPan="magnify" viewBox="0 0 375 374.999991" height="500" preserveAspectRatio="xMidYMid meet" version="1.0"><defs><g/><clipPath id="bd6eb589b6"><path d="M 122.183594 197.40625 L 343.054688 197.40625 L 343.054688 206.640625 L 122.183594 206.640625 Z M 122.183594 197.40625 " clip-rule="nonzero"/></clipPath><clipPath id="a5896694d1"><path d="M 122.183594 197.40625 L 124.183594 206.640625 L 343.027344 197.90625 L 342.902344 197.40625 Z M 122.183594 197.40625 " clip-rule="nonzero"/></clipPath></defs><g fill="#0658f6" fill-opacity="1"><g transform="translate(120.023207, 191.404603)"><g><path d="M 26.4375 -8.96875 C 26.4375 -7.613281 26.113281 -6.351562 25.46875 -5.1875 C 24.832031 -4.03125 23.9375 -3.035156 22.78125 -2.203125 C 21.632812 -1.378906 20.269531 -0.726562 18.6875 -0.25 C 17.113281 0.21875 15.390625 0.453125 13.515625 0.453125 C 11.035156 0.453125 8.675781 0.0078125 6.4375 -0.875 C 4.195312 -1.757812 2.328125 -2.984375 0.828125 -4.546875 L 5.0625 -8.46875 C 6.34375 -7.175781 7.613281 -6.269531 8.875 -5.75 C 10.132812 -5.226562 11.664062 -4.96875 13.46875 -4.96875 C 15.4375 -4.96875 17.03125 -5.378906 18.25 -6.203125 C 19.476562 -7.035156 20.09375 -8.109375 20.09375 -9.421875 C 20.09375 -10.617188 19.53125 -11.566406 18.40625 -12.265625 C 17.289062 -12.972656 15.816406 -13.328125 13.984375 -13.328125 L 11.03125 -13.328125 L 11.03125 -18.34375 L 13.328125 -18.34375 C 14.984375 -18.34375 16.363281 -18.785156 17.46875 -19.671875 C 18.570312 -20.566406 19.125 -21.6875 19.125 -23.03125 C 19.125 -24.226562 18.578125 -25.222656 17.484375 -26.015625 C 16.398438 -26.816406 15.03125 -27.21875 13.375 -27.21875 C 11.8125 -27.21875 10.429688 -26.929688 9.234375 -26.359375 C 8.046875 -25.796875 6.757812 -24.828125 5.375 -23.453125 L 1.109375 -27.359375 C 2.671875 -29.015625 4.554688 -30.316406 6.765625 -31.265625 C 8.972656 -32.210938 11.253906 -32.6875 13.609375 -32.6875 C 15.328125 -32.6875 16.914062 -32.460938 18.375 -32.015625 C 19.832031 -31.578125 21.082031 -30.957031 22.125 -30.15625 C 23.164062 -29.363281 23.972656 -28.414062 24.546875 -27.3125 C 25.128906 -26.207031 25.421875 -25 25.421875 -23.6875 C 25.421875 -22.09375 24.992188 -20.640625 24.140625 -19.328125 C 23.285156 -18.023438 22.117188 -16.992188 20.640625 -16.234375 C 22.390625 -15.617188 23.789062 -14.664062 24.84375 -13.375 C 25.90625 -12.09375 26.4375 -10.625 26.4375 -8.96875 Z M 26.4375 -8.96875 "/></g></g></g><g fill="#0658f6" fill-opacity="1"><g transform="translate(147.146784, 191.404603)"><g><path d="M 2.890625 0 L 2.890625 -32.1875 L 15.265625 -32.1875 C 17.660156 -32.1875 19.898438 -31.769531 21.984375 -30.9375 C 24.066406 -30.113281 25.863281 -28.984375 27.375 -27.546875 C 28.894531 -26.109375 30.09375 -24.390625 30.96875 -22.390625 C 31.84375 -20.398438 32.28125 -18.269531 32.28125 -16 C 32.28125 -13.757812 31.84375 -11.660156 30.96875 -9.703125 C 30.09375 -7.742188 28.894531 -6.050781 27.375 -4.625 C 25.863281 -3.195312 24.066406 -2.066406 21.984375 -1.234375 C 19.898438 -0.410156 17.660156 0 15.265625 0 Z M 15.21875 -26.25 L 9.5625 -26.25 L 9.5625 -5.9375 L 15.21875 -5.9375 C 16.632812 -5.9375 17.960938 -6.195312 19.203125 -6.71875 C 20.441406 -7.238281 21.519531 -7.945312 22.4375 -8.84375 C 23.351562 -9.75 24.070312 -10.816406 24.59375 -12.046875 C 25.125 -13.273438 25.390625 -14.59375 25.390625 -16 C 25.390625 -17.4375 25.125 -18.785156 24.59375 -20.046875 C 24.070312 -21.304688 23.351562 -22.394531 22.4375 -23.3125 C 21.519531 -24.226562 20.441406 -24.945312 19.203125 -25.46875 C 17.960938 -25.988281 16.632812 -26.25 15.21875 -26.25 Z M 15.21875 -26.25 "/></g></g></g><g fill="#0658f6" fill-opacity="1"><g transform="translate(179.87903, 191.404603)"><g><path d="M 2.484375 0 L 2.484375 -32.1875 L 8.78125 -33.5625 L 8.78125 -13.84375 L 19.125 -23.953125 L 26.25 -23.953125 L 15.03125 -12.96875 L 26.953125 0 L 18.90625 0 L 8.78125 -10.9375 L 8.78125 0 Z M 2.484375 0 "/></g></g></g><g fill="#0658f6" fill-opacity="1"><g transform="translate(204.795924, 191.404603)"><g><path d="M 10.078125 0.40625 C 7.492188 0.40625 5.390625 -0.269531 3.765625 -1.625 C 2.140625 -2.988281 1.328125 -4.757812 1.328125 -6.9375 C 1.328125 -9.207031 2.203125 -10.984375 3.953125 -12.265625 C 5.703125 -13.554688 8.109375 -14.203125 11.171875 -14.203125 C 12.148438 -14.203125 13.128906 -14.125 14.109375 -13.96875 C 15.097656 -13.820312 16.066406 -13.597656 17.015625 -13.296875 L 17.015625 -14.984375 C 17.015625 -16.367188 16.582031 -17.410156 15.71875 -18.109375 C 14.863281 -18.816406 13.609375 -19.171875 11.953125 -19.171875 C 10.941406 -19.171875 9.84375 -19.007812 8.65625 -18.6875 C 7.476562 -18.363281 6.140625 -17.867188 4.640625 -17.203125 L 2.34375 -21.84375 C 4.21875 -22.695312 6.035156 -23.335938 7.796875 -23.765625 C 9.554688 -24.203125 11.296875 -24.421875 13.015625 -24.421875 C 16.234375 -24.421875 18.738281 -23.644531 20.53125 -22.09375 C 22.320312 -20.539062 23.21875 -18.359375 23.21875 -15.546875 L 23.21875 0 L 17.015625 0 L 17.015625 -1.65625 C 16.003906 -0.945312 14.9375 -0.425781 13.8125 -0.09375 C 12.695312 0.238281 11.453125 0.40625 10.078125 0.40625 Z M 7.359375 -7.078125 C 7.359375 -6.160156 7.753906 -5.429688 8.546875 -4.890625 C 9.347656 -4.359375 10.40625 -4.09375 11.71875 -4.09375 C 12.769531 -4.09375 13.726562 -4.222656 14.59375 -4.484375 C 15.46875 -4.742188 16.273438 -5.117188 17.015625 -5.609375 L 17.015625 -9.203125 C 16.242188 -9.503906 15.4375 -9.722656 14.59375 -9.859375 C 13.75 -10.003906 12.867188 -10.078125 11.953125 -10.078125 C 10.515625 -10.078125 9.390625 -9.804688 8.578125 -9.265625 C 7.765625 -8.734375 7.359375 -8.003906 7.359375 -7.078125 Z M 7.359375 -7.078125 "/></g></g></g><g fill="#0658f6" fill-opacity="1"><g transform="translate(229.115173, 191.404603)"><g><path d="M 2.484375 0 L 2.484375 -23.953125 L 8.78125 -23.953125 L 8.78125 -21.34375 C 9.550781 -22.382812 10.476562 -23.171875 11.5625 -23.703125 C 12.65625 -24.242188 13.859375 -24.515625 15.171875 -24.515625 C 15.785156 -24.484375 16.300781 -24.425781 16.71875 -24.34375 C 17.132812 -24.269531 17.492188 -24.140625 17.796875 -23.953125 L 17.796875 -18.4375 C 17.335938 -18.65625 16.832031 -18.816406 16.28125 -18.921875 C 15.726562 -19.023438 15.160156 -19.078125 14.578125 -19.078125 C 13.347656 -19.078125 12.21875 -18.769531 11.1875 -18.15625 C 10.164062 -17.550781 9.363281 -16.664062 8.78125 -15.5 L 8.78125 0 Z M 2.484375 0 "/></g></g></g><g fill="#0658f6" fill-opacity="1"><g transform="translate(246.630457, 191.404603)"><g><path d="M 1.375 -11.953125 C 1.375 -13.703125 1.703125 -15.332031 2.359375 -16.84375 C 3.023438 -18.363281 3.929688 -19.679688 5.078125 -20.796875 C 6.234375 -21.921875 7.59375 -22.804688 9.15625 -23.453125 C 10.71875 -24.097656 12.382812 -24.421875 14.15625 -24.421875 C 15.9375 -24.421875 17.609375 -24.097656 19.171875 -23.453125 C 20.734375 -22.804688 22.085938 -21.921875 23.234375 -20.796875 C 24.390625 -19.679688 25.296875 -18.363281 25.953125 -16.84375 C 26.617188 -15.332031 26.953125 -13.703125 26.953125 -11.953125 C 26.953125 -10.203125 26.617188 -8.566406 25.953125 -7.046875 C 25.296875 -5.535156 24.390625 -4.226562 23.234375 -3.125 C 22.085938 -2.019531 20.734375 -1.144531 19.171875 -0.5 C 17.609375 0.132812 15.9375 0.453125 14.15625 0.453125 C 12.382812 0.453125 10.71875 0.132812 9.15625 -0.5 C 7.59375 -1.144531 6.234375 -2.019531 5.078125 -3.125 C 3.929688 -4.226562 3.023438 -5.535156 2.359375 -7.046875 C 1.703125 -8.566406 1.375 -10.203125 1.375 -11.953125 Z M 14.15625 -5.015625 C 16 -5.015625 17.5625 -5.6875 18.84375 -7.03125 C 20.132812 -8.382812 20.78125 -10.023438 20.78125 -11.953125 C 20.78125 -13.921875 20.132812 -15.578125 18.84375 -16.921875 C 17.5625 -18.273438 16 -18.953125 14.15625 -18.953125 C 12.320312 -18.953125 10.757812 -18.273438 9.46875 -16.921875 C 8.1875 -15.578125 7.546875 -13.921875 7.546875 -11.953125 C 7.546875 -10.023438 8.1875 -8.382812 9.46875 -7.03125 C 10.757812 -5.6875 12.320312 -5.015625 14.15625 -5.015625 Z M 14.15625 -5.015625 "/></g></g></g><g fill="#0658f6" fill-opacity="1"><g transform="translate(273.75404, 191.404603)"><g><path d="M 27.6875 -11.953125 C 27.6875 -10.234375 27.363281 -8.625 26.71875 -7.125 C 26.070312 -5.625 25.195312 -4.320312 24.09375 -3.21875 C 22.988281 -2.113281 21.675781 -1.242188 20.15625 -0.609375 C 18.644531 0.015625 17.03125 0.328125 15.3125 0.328125 C 14.113281 0.328125 12.945312 0.160156 11.8125 -0.171875 C 10.675781 -0.515625 9.632812 -0.992188 8.6875 -1.609375 L 8.6875 0 L 2.484375 0 L 2.484375 -32.1875 L 8.78125 -33.5625 L 8.78125 -22.078125 C 9.726562 -22.773438 10.773438 -23.316406 11.921875 -23.703125 C 13.078125 -24.085938 14.269531 -24.28125 15.5 -24.28125 C 17.1875 -24.28125 18.769531 -23.957031 20.25 -23.3125 C 21.738281 -22.664062 23.035156 -21.789062 24.140625 -20.6875 C 25.242188 -19.582031 26.109375 -18.28125 26.734375 -16.78125 C 27.367188 -15.28125 27.6875 -13.671875 27.6875 -11.953125 Z M 14.484375 -18.90625 C 13.347656 -18.90625 12.289062 -18.710938 11.3125 -18.328125 C 10.332031 -17.941406 9.488281 -17.378906 8.78125 -16.640625 L 8.78125 -7.21875 C 9.457031 -6.539062 10.289062 -6.003906 11.28125 -5.609375 C 12.28125 -5.210938 13.347656 -5.015625 14.484375 -5.015625 C 16.441406 -5.015625 18.09375 -5.679688 19.4375 -7.015625 C 20.789062 -8.347656 21.46875 -9.992188 21.46875 -11.953125 C 21.46875 -13.921875 20.785156 -15.570312 19.421875 -16.90625 C 18.054688 -18.238281 16.410156 -18.90625 14.484375 -18.90625 Z M 14.484375 -18.90625 "/></g></g></g><g fill="#0658f6" fill-opacity="1"><g transform="translate(301.613192, 191.404603)"><g><path d="M 10.078125 0.40625 C 7.492188 0.40625 5.390625 -0.269531 3.765625 -1.625 C 2.140625 -2.988281 1.328125 -4.757812 1.328125 -6.9375 C 1.328125 -9.207031 2.203125 -10.984375 3.953125 -12.265625 C 5.703125 -13.554688 8.109375 -14.203125 11.171875 -14.203125 C 12.148438 -14.203125 13.128906 -14.125 14.109375 -13.96875 C 15.097656 -13.820312 16.066406 -13.597656 17.015625 -13.296875 L 17.015625 -14.984375 C 17.015625 -16.367188 16.582031 -17.410156 15.71875 -18.109375 C 14.863281 -18.816406 13.609375 -19.171875 11.953125 -19.171875 C 10.941406 -19.171875 9.84375 -19.007812 8.65625 -18.6875 C 7.476562 -18.363281 6.140625 -17.867188 4.640625 -17.203125 L 2.34375 -21.84375 C 4.21875 -22.695312 6.035156 -23.335938 7.796875 -23.765625 C 9.554688 -24.203125 11.296875 -24.421875 13.015625 -24.421875 C 16.234375 -24.421875 18.738281 -23.644531 20.53125 -22.09375 C 22.320312 -20.539062 23.21875 -18.359375 23.21875 -15.546875 L 23.21875 0 L 17.015625 0 L 17.015625 -1.65625 C 16.003906 -0.945312 14.9375 -0.425781 13.8125 -0.09375 C 12.695312 0.238281 11.453125 0.40625 10.078125 0.40625 Z M 7.359375 -7.078125 C 7.359375 -6.160156 7.753906 -5.429688 8.546875 -4.890625 C 9.347656 -4.359375 10.40625 -4.09375 11.71875 -4.09375 C 12.769531 -4.09375 13.726562 -4.222656 14.59375 -4.484375 C 15.46875 -4.742188 16.273438 -5.117188 17.015625 -5.609375 L 17.015625 -9.203125 C 16.242188 -9.503906 15.4375 -9.722656 14.59375 -9.859375 C 13.75 -10.003906 12.867188 -10.078125 11.953125 -10.078125 C 10.515625 -10.078125 9.390625 -9.804688 8.578125 -9.265625 C 7.765625 -8.734375 7.359375 -8.003906 7.359375 -7.078125 Z M 7.359375 -7.078125 "/></g></g></g><g fill="#0658f6" fill-opacity="1"><g transform="translate(325.932434, 191.404603)"><g><path d="M 2.484375 0 L 2.484375 -23.953125 L 8.78125 -23.953125 L 8.78125 -21.34375 C 9.550781 -22.382812 10.476562 -23.171875 11.5625 -23.703125 C 12.65625 -24.242188 13.859375 -24.515625 15.171875 -24.515625 C 15.785156 -24.484375 16.300781 -24.425781 16.71875 -24.34375 C 17.132812 -24.269531 17.492188 -24.140625 17.796875 -23.953125 L 17.796875 -18.4375 C 17.335938 -18.65625 16.832031 -18.816406 16.28125 -18.921875 C 15.726562 -19.023438 15.160156 -19.078125 14.578125 -19.078125 C 13.347656 -19.078125 12.21875 -18.769531 11.1875 -18.15625 C 10.164062 -17.550781 9.363281 -16.664062 8.78125 -15.5 L 8.78125 0 Z M 2.484375 0 "/></g></g></g><g clip-path="url(#bd6eb589b6)"><g clip-path="url(#a5896694d1)"><path fill="#0658f6" d="M 122.183594 197.40625 L 343.019531 197.40625 L 343.019531 206.640625 L 122.183594 206.640625 Z M 122.183594 197.40625 " fill-opacity="1" fill-rule="nonzero"/></g></g><g fill="#0658f6" fill-opacity="1"><g transform="translate(219.859882, 210.014797)"><g><path d="M 1.796875 0.21875 L 1.875 0.046875 L 0 -4.796875 L 1.390625 -4.796875 L 2.578125 -1.53125 L 3.953125 -4.796875 L 5.3125 -4.796875 L 3.09375 0.375 C 2.851562 0.957031 2.566406 1.367188 2.234375 1.609375 C 1.910156 1.859375 1.488281 1.984375 0.96875 1.984375 C 0.851562 1.984375 0.742188 1.976562 0.640625 1.96875 C 0.546875 1.957031 0.46875 1.941406 0.40625 1.921875 L 0.40625 0.84375 C 0.46875 0.851562 0.53125 0.859375 0.59375 0.859375 C 0.664062 0.867188 0.75 0.875 0.84375 0.875 C 1.070312 0.875 1.265625 0.816406 1.421875 0.703125 C 1.578125 0.597656 1.703125 0.4375 1.796875 0.21875 Z M 1.796875 0.21875 "/></g></g></g><g fill="#0658f6" fill-opacity="1"><g transform="translate(224.925559, 210.014797)"><g><path d="M 0.28125 -2.390625 C 0.28125 -2.742188 0.34375 -3.070312 0.46875 -3.375 C 0.601562 -3.675781 0.785156 -3.941406 1.015625 -4.171875 C 1.242188 -4.398438 1.515625 -4.578125 1.828125 -4.703125 C 2.140625 -4.828125 2.476562 -4.890625 2.84375 -4.890625 C 3.195312 -4.890625 3.53125 -4.828125 3.84375 -4.703125 C 4.15625 -4.578125 4.425781 -4.398438 4.65625 -4.171875 C 4.882812 -3.941406 5.066406 -3.675781 5.203125 -3.375 C 5.335938 -3.070312 5.40625 -2.742188 5.40625 -2.390625 C 5.40625 -2.046875 5.335938 -1.71875 5.203125 -1.40625 C 5.066406 -1.101562 4.882812 -0.84375 4.65625 -0.625 C 4.425781 -0.40625 4.15625 -0.226562 3.84375 -0.09375 C 3.53125 0.03125 3.195312 0.09375 2.84375 0.09375 C 2.476562 0.09375 2.140625 0.03125 1.828125 -0.09375 C 1.515625 -0.226562 1.242188 -0.40625 1.015625 -0.625 C 0.785156 -0.84375 0.601562 -1.101562 0.46875 -1.40625 C 0.34375 -1.71875 0.28125 -2.046875 0.28125 -2.390625 Z M 2.84375 -1 C 3.207031 -1 3.519531 -1.132812 3.78125 -1.40625 C 4.039062 -1.675781 4.171875 -2.003906 4.171875 -2.390625 C 4.171875 -2.785156 4.039062 -3.117188 3.78125 -3.390625 C 3.519531 -3.660156 3.207031 -3.796875 2.84375 -3.796875 C 2.46875 -3.796875 2.148438 -3.660156 1.890625 -3.390625 C 1.640625 -3.117188 1.515625 -2.785156 1.515625 -2.390625 C 1.515625 -2.003906 1.640625 -1.675781 1.890625 -1.40625 C 2.148438 -1.132812 2.46875 -1 2.84375 -1 Z M 2.84375 -1 "/></g></g></g><g fill="#0658f6" fill-opacity="1"><g transform="translate(230.359668, 210.014797)"><g><path d="M 1.71875 -4.796875 L 1.71875 -2.015625 C 1.71875 -1.703125 1.804688 -1.453125 1.984375 -1.265625 C 2.171875 -1.085938 2.414062 -1 2.71875 -1 C 2.9375 -1 3.128906 -1.039062 3.296875 -1.125 C 3.460938 -1.207031 3.601562 -1.320312 3.71875 -1.46875 L 3.71875 -4.796875 L 4.984375 -4.796875 L 4.984375 0 L 3.71875 0 L 3.71875 -0.390625 C 3.53125 -0.234375 3.320312 -0.113281 3.09375 -0.03125 C 2.863281 0.0507812 2.617188 0.09375 2.359375 0.09375 C 1.804688 0.09375 1.347656 -0.0820312 0.984375 -0.4375 C 0.628906 -0.800781 0.453125 -1.265625 0.453125 -1.828125 L 0.453125 -4.796875 Z M 1.71875 -4.796875 "/></g></g></g><g fill="#0658f6" fill-opacity="1"><g transform="translate(235.581934, 210.014797)"><g><path d="M 0.5 0 L 0.5 -4.796875 L 1.765625 -4.796875 L 1.765625 -4.28125 C 1.910156 -4.488281 2.09375 -4.644531 2.3125 -4.75 C 2.53125 -4.851562 2.773438 -4.90625 3.046875 -4.90625 C 3.160156 -4.90625 3.257812 -4.894531 3.34375 -4.875 C 3.425781 -4.863281 3.5 -4.835938 3.5625 -4.796875 L 3.5625 -3.703125 C 3.46875 -3.742188 3.363281 -3.773438 3.25 -3.796875 C 3.144531 -3.816406 3.035156 -3.828125 2.921875 -3.828125 C 2.671875 -3.828125 2.441406 -3.765625 2.234375 -3.640625 C 2.035156 -3.515625 1.878906 -3.335938 1.765625 -3.109375 L 1.765625 0 Z M 0.5 0 "/></g></g></g><g fill="#0658f6" fill-opacity="1"><g transform="translate(239.090976, 210.014797)"><g/></g></g><g fill="#0658f6" fill-opacity="1"><g transform="translate(240.702575, 210.014797)"><g><path d="M 1.15625 -1.359375 L 1.15625 -3.75 L 0.171875 -3.75 L 0.171875 -4.796875 L 1.15625 -4.796875 L 1.15625 -6.03125 L 2.421875 -6.3125 L 2.421875 -4.796875 L 3.78125 -4.796875 L 3.78125 -3.75 L 2.421875 -3.75 L 2.421875 -1.609375 C 2.421875 -1.378906 2.46875 -1.21875 2.5625 -1.125 C 2.65625 -1.039062 2.828125 -1 3.078125 -1 C 3.191406 -1 3.300781 -1.003906 3.40625 -1.015625 C 3.507812 -1.035156 3.625 -1.066406 3.75 -1.109375 L 3.75 -0.078125 C 3.613281 -0.0351562 3.453125 0 3.265625 0.03125 C 3.078125 0.0625 2.914062 0.078125 2.78125 0.078125 C 2.238281 0.078125 1.832031 -0.0390625 1.5625 -0.28125 C 1.289062 -0.53125 1.15625 -0.890625 1.15625 -1.359375 Z M 1.15625 -1.359375 "/></g></g></g><g fill="#0658f6" fill-opacity="1"><g transform="translate(244.368195, 210.014797)"><g><path d="M 0.5 0 L 0.5 -4.796875 L 1.765625 -4.796875 L 1.765625 -4.28125 C 1.910156 -4.488281 2.09375 -4.644531 2.3125 -4.75 C 2.53125 -4.851562 2.773438 -4.90625 3.046875 -4.90625 C 3.160156 -4.90625 3.257812 -4.894531 3.34375 -4.875 C 3.425781 -4.863281 3.5 -4.835938 3.5625 -4.796875 L 3.5625 -3.703125 C 3.46875 -3.742188 3.363281 -3.773438 3.25 -3.796875 C 3.144531 -3.816406 3.035156 -3.828125 2.921875 -3.828125 C 2.671875 -3.828125 2.441406 -3.765625 2.234375 -3.640625 C 2.035156 -3.515625 1.878906 -3.335938 1.765625 -3.109375 L 1.765625 0 Z M 0.5 0 "/></g></g></g><g fill="#0658f6" fill-opacity="1"><g transform="translate(247.877237, 210.014797)"><g><path d="M 1.71875 -4.796875 L 1.71875 -2.015625 C 1.71875 -1.703125 1.804688 -1.453125 1.984375 -1.265625 C 2.171875 -1.085938 2.414062 -1 2.71875 -1 C 2.9375 -1 3.128906 -1.039062 3.296875 -1.125 C 3.460938 -1.207031 3.601562 -1.320312 3.71875 -1.46875 L 3.71875 -4.796875 L 4.984375 -4.796875 L 4.984375 0 L 3.71875 0 L 3.71875 -0.390625 C 3.53125 -0.234375 3.320312 -0.113281 3.09375 -0.03125 C 2.863281 0.0507812 2.617188 0.09375 2.359375 0.09375 C 1.804688 0.09375 1.347656 -0.0820312 0.984375 -0.4375 C 0.628906 -0.800781 0.453125 -1.265625 0.453125 -1.828125 L 0.453125 -4.796875 Z M 1.71875 -4.796875 "/></g></g></g><g fill="#0658f6" fill-opacity="1"><g transform="translate(253.099504, 210.014797)"><g><path d="M 0.09375 -0.578125 L 0.71875 -1.40625 C 1 -1.226562 1.265625 -1.09375 1.515625 -1 C 1.773438 -0.90625 2.03125 -0.859375 2.28125 -0.859375 C 2.5625 -0.859375 2.785156 -0.90625 2.953125 -1 C 3.117188 -1.09375 3.203125 -1.21875 3.203125 -1.375 C 3.203125 -1.5 3.15625 -1.597656 3.0625 -1.671875 C 2.96875 -1.742188 2.816406 -1.796875 2.609375 -1.828125 L 1.6875 -1.96875 C 1.21875 -2.039062 0.859375 -2.191406 0.609375 -2.421875 C 0.359375 -2.660156 0.234375 -2.972656 0.234375 -3.359375 C 0.234375 -3.816406 0.410156 -4.179688 0.765625 -4.453125 C 1.128906 -4.734375 1.617188 -4.875 2.234375 -4.875 C 2.578125 -4.875 2.914062 -4.820312 3.25 -4.71875 C 3.582031 -4.625 3.898438 -4.476562 4.203125 -4.28125 L 3.59375 -3.46875 C 3.332031 -3.625 3.082031 -3.738281 2.84375 -3.8125 C 2.601562 -3.882812 2.359375 -3.921875 2.109375 -3.921875 C 1.878906 -3.921875 1.695312 -3.878906 1.5625 -3.796875 C 1.425781 -3.710938 1.359375 -3.597656 1.359375 -3.453125 C 1.359375 -3.328125 1.40625 -3.226562 1.5 -3.15625 C 1.601562 -3.082031 1.773438 -3.03125 2.015625 -3 L 2.9375 -2.859375 C 3.394531 -2.796875 3.75 -2.644531 4 -2.40625 C 4.257812 -2.164062 4.390625 -1.863281 4.390625 -1.5 C 4.390625 -1.269531 4.335938 -1.054688 4.234375 -0.859375 C 4.128906 -0.671875 3.984375 -0.503906 3.796875 -0.359375 C 3.609375 -0.210938 3.382812 -0.0976562 3.125 -0.015625 C 2.875 0.0546875 2.597656 0.09375 2.296875 0.09375 C 1.859375 0.09375 1.445312 0.0351562 1.0625 -0.078125 C 0.6875 -0.191406 0.363281 -0.359375 0.09375 -0.578125 Z M 0.09375 -0.578125 "/></g></g></g><g fill="#0658f6" fill-opacity="1"><g transform="translate(257.382258, 210.014797)"><g><path d="M 1.15625 -1.359375 L 1.15625 -3.75 L 0.171875 -3.75 L 0.171875 -4.796875 L 1.15625 -4.796875 L 1.15625 -6.03125 L 2.421875 -6.3125 L 2.421875 -4.796875 L 3.78125 -4.796875 L 3.78125 -3.75 L 2.421875 -3.75 L 2.421875 -1.609375 C 2.421875 -1.378906 2.46875 -1.21875 2.5625 -1.125 C 2.65625 -1.039062 2.828125 -1 3.078125 -1 C 3.191406 -1 3.300781 -1.003906 3.40625 -1.015625 C 3.507812 -1.035156 3.625 -1.066406 3.75 -1.109375 L 3.75 -0.078125 C 3.613281 -0.0351562 3.453125 0 3.265625 0.03125 C 3.078125 0.0625 2.914062 0.078125 2.78125 0.078125 C 2.238281 0.078125 1.832031 -0.0390625 1.5625 -0.28125 C 1.289062 -0.53125 1.15625 -0.890625 1.15625 -1.359375 Z M 1.15625 -1.359375 "/></g></g></g><g fill="#0658f6" fill-opacity="1"><g transform="translate(261.047878, 210.014797)"><g><path d="M 4.796875 -0.59375 C 4.503906 -0.351562 4.203125 -0.175781 3.890625 -0.0625 C 3.578125 0.0390625 3.234375 0.09375 2.859375 0.09375 C 2.492188 0.09375 2.148438 0.03125 1.828125 -0.09375 C 1.515625 -0.226562 1.242188 -0.40625 1.015625 -0.625 C 0.785156 -0.84375 0.601562 -1.101562 0.46875 -1.40625 C 0.34375 -1.71875 0.28125 -2.046875 0.28125 -2.390625 C 0.28125 -2.734375 0.34375 -3.054688 0.46875 -3.359375 C 0.59375 -3.671875 0.765625 -3.9375 0.984375 -4.15625 C 1.203125 -4.382812 1.460938 -4.5625 1.765625 -4.6875 C 2.078125 -4.820312 2.40625 -4.890625 2.75 -4.890625 C 3.082031 -4.890625 3.394531 -4.820312 3.6875 -4.6875 C 3.976562 -4.550781 4.226562 -4.367188 4.4375 -4.140625 C 4.65625 -3.921875 4.820312 -3.648438 4.9375 -3.328125 C 5.0625 -3.015625 5.125 -2.671875 5.125 -2.296875 L 5.125 -1.96875 L 1.546875 -1.96875 C 1.628906 -1.664062 1.796875 -1.421875 2.046875 -1.234375 C 2.296875 -1.054688 2.582031 -0.96875 2.90625 -0.96875 C 3.113281 -0.96875 3.3125 -1 3.5 -1.0625 C 3.6875 -1.132812 3.84375 -1.234375 3.96875 -1.359375 Z M 2.71875 -3.84375 C 2.425781 -3.84375 2.175781 -3.753906 1.96875 -3.578125 C 1.757812 -3.398438 1.617188 -3.164062 1.546875 -2.875 L 3.890625 -2.875 C 3.804688 -3.15625 3.660156 -3.382812 3.453125 -3.5625 C 3.242188 -3.75 3 -3.84375 2.71875 -3.84375 Z M 2.71875 -3.84375 "/></g></g></g><g fill="#0658f6" fill-opacity="1"><g transform="translate(266.205669, 210.014797)"><g><path d="M 4.078125 0 L 4.078125 -0.390625 C 3.890625 -0.242188 3.675781 -0.128906 3.4375 -0.046875 C 3.207031 0.0234375 2.96875 0.0625 2.71875 0.0625 C 2.382812 0.0625 2.066406 0 1.765625 -0.125 C 1.460938 -0.257812 1.203125 -0.4375 0.984375 -0.65625 C 0.765625 -0.875 0.59375 -1.132812 0.46875 -1.4375 C 0.34375 -1.738281 0.28125 -2.0625 0.28125 -2.40625 C 0.28125 -2.75 0.34375 -3.070312 0.46875 -3.375 C 0.59375 -3.675781 0.765625 -3.9375 0.984375 -4.15625 C 1.210938 -4.375 1.476562 -4.546875 1.78125 -4.671875 C 2.082031 -4.804688 2.40625 -4.875 2.75 -4.875 C 2.988281 -4.875 3.21875 -4.835938 3.4375 -4.765625 C 3.664062 -4.703125 3.875 -4.609375 4.0625 -4.484375 L 4.0625 -6.453125 L 5.328125 -6.734375 L 5.328125 0 Z M 1.515625 -2.40625 C 1.515625 -2.019531 1.648438 -1.691406 1.921875 -1.421875 C 2.191406 -1.148438 2.523438 -1.015625 2.921875 -1.015625 C 3.148438 -1.015625 3.363281 -1.050781 3.5625 -1.125 C 3.757812 -1.207031 3.925781 -1.320312 4.0625 -1.46875 L 4.0625 -3.34375 C 3.925781 -3.488281 3.757812 -3.597656 3.5625 -3.671875 C 3.363281 -3.753906 3.148438 -3.796875 2.921875 -3.796875 C 2.523438 -3.796875 2.191406 -3.660156 1.921875 -3.390625 C 1.648438 -3.128906 1.515625 -2.800781 1.515625 -2.40625 Z M 1.515625 -2.40625 "/></g></g></g><g fill="#0658f6" fill-opacity="1"><g transform="translate(271.787153, 210.014797)"><g/></g></g><g fill="#0658f6" fill-opacity="1"><g transform="translate(273.39875, 210.014797)"><g><path d="M 0.09375 -0.578125 L 0.71875 -1.40625 C 1 -1.226562 1.265625 -1.09375 1.515625 -1 C 1.773438 -0.90625 2.03125 -0.859375 2.28125 -0.859375 C 2.5625 -0.859375 2.785156 -0.90625 2.953125 -1 C 3.117188 -1.09375 3.203125 -1.21875 3.203125 -1.375 C 3.203125 -1.5 3.15625 -1.597656 3.0625 -1.671875 C 2.96875 -1.742188 2.816406 -1.796875 2.609375 -1.828125 L 1.6875 -1.96875 C 1.21875 -2.039062 0.859375 -2.191406 0.609375 -2.421875 C 0.359375 -2.660156 0.234375 -2.972656 0.234375 -3.359375 C 0.234375 -3.816406 0.410156 -4.179688 0.765625 -4.453125 C 1.128906 -4.734375 1.617188 -4.875 2.234375 -4.875 C 2.578125 -4.875 2.914062 -4.820312 3.25 -4.71875 C 3.582031 -4.625 3.898438 -4.476562 4.203125 -4.28125 L 3.59375 -3.46875 C 3.332031 -3.625 3.082031 -3.738281 2.84375 -3.8125 C 2.601562 -3.882812 2.359375 -3.921875 2.109375 -3.921875 C 1.878906 -3.921875 1.695312 -3.878906 1.5625 -3.796875 C 1.425781 -3.710938 1.359375 -3.597656 1.359375 -3.453125 C 1.359375 -3.328125 1.40625 -3.226562 1.5 -3.15625 C 1.601562 -3.082031 1.773438 -3.03125 2.015625 -3 L 2.9375 -2.859375 C 3.394531 -2.796875 3.75 -2.644531 4 -2.40625 C 4.257812 -2.164062 4.390625 -1.863281 4.390625 -1.5 C 4.390625 -1.269531 4.335938 -1.054688 4.234375 -0.859375 C 4.128906 -0.671875 3.984375 -0.503906 3.796875 -0.359375 C 3.609375 -0.210938 3.382812 -0.0976562 3.125 -0.015625 C 2.875 0.0546875 2.597656 0.09375 2.296875 0.09375 C 1.859375 0.09375 1.445312 0.0351562 1.0625 -0.078125 C 0.6875 -0.191406 0.363281 -0.359375 0.09375 -0.578125 Z M 0.09375 -0.578125 "/></g></g></g><g fill="#0658f6" fill-opacity="1"><g transform="translate(277.681501, 210.014797)"><g><path d="M 0.28125 -2.390625 C 0.28125 -2.742188 0.34375 -3.070312 0.46875 -3.375 C 0.601562 -3.675781 0.785156 -3.941406 1.015625 -4.171875 C 1.242188 -4.398438 1.515625 -4.578125 1.828125 -4.703125 C 2.140625 -4.828125 2.476562 -4.890625 2.84375 -4.890625 C 3.195312 -4.890625 3.53125 -4.828125 3.84375 -4.703125 C 4.15625 -4.578125 4.425781 -4.398438 4.65625 -4.171875 C 4.882812 -3.941406 5.066406 -3.675781 5.203125 -3.375 C 5.335938 -3.070312 5.40625 -2.742188 5.40625 -2.390625 C 5.40625 -2.046875 5.335938 -1.71875 5.203125 -1.40625 C 5.066406 -1.101562 4.882812 -0.84375 4.65625 -0.625 C 4.425781 -0.40625 4.15625 -0.226562 3.84375 -0.09375 C 3.53125 0.03125 3.195312 0.09375 2.84375 0.09375 C 2.476562 0.09375 2.140625 0.03125 1.828125 -0.09375 C 1.515625 -0.226562 1.242188 -0.40625 1.015625 -0.625 C 0.785156 -0.84375 0.601562 -1.101562 0.46875 -1.40625 C 0.34375 -1.71875 0.28125 -2.046875 0.28125 -2.390625 Z M 2.84375 -1 C 3.207031 -1 3.519531 -1.132812 3.78125 -1.40625 C 4.039062 -1.675781 4.171875 -2.003906 4.171875 -2.390625 C 4.171875 -2.785156 4.039062 -3.117188 3.78125 -3.390625 C 3.519531 -3.660156 3.207031 -3.796875 2.84375 -3.796875 C 2.46875 -3.796875 2.148438 -3.660156 1.890625 -3.390625 C 1.640625 -3.117188 1.515625 -2.785156 1.515625 -2.390625 C 1.515625 -2.003906 1.640625 -1.675781 1.890625 -1.40625 C 2.148438 -1.132812 2.46875 -1 2.84375 -1 Z M 2.84375 -1 "/></g></g></g><g fill="#0658f6" fill-opacity="1"><g transform="translate(283.115607, 210.014797)"><g><path d="M 1.71875 -4.796875 L 1.71875 -2.015625 C 1.71875 -1.703125 1.804688 -1.453125 1.984375 -1.265625 C 2.171875 -1.085938 2.414062 -1 2.71875 -1 C 2.9375 -1 3.128906 -1.039062 3.296875 -1.125 C 3.460938 -1.207031 3.601562 -1.320312 3.71875 -1.46875 L 3.71875 -4.796875 L 4.984375 -4.796875 L 4.984375 0 L 3.71875 0 L 3.71875 -0.390625 C 3.53125 -0.234375 3.320312 -0.113281 3.09375 -0.03125 C 2.863281 0.0507812 2.617188 0.09375 2.359375 0.09375 C 1.804688 0.09375 1.347656 -0.0820312 0.984375 -0.4375 C 0.628906 -0.800781 0.453125 -1.265625 0.453125 -1.828125 L 0.453125 -4.796875 Z M 1.71875 -4.796875 "/></g></g></g><g fill="#0658f6" fill-opacity="1"><g transform="translate(288.337872, 210.014797)"><g><path d="M 0.5 0 L 0.5 -4.796875 L 1.765625 -4.796875 L 1.765625 -4.28125 C 1.910156 -4.488281 2.09375 -4.644531 2.3125 -4.75 C 2.53125 -4.851562 2.773438 -4.90625 3.046875 -4.90625 C 3.160156 -4.90625 3.257812 -4.894531 3.34375 -4.875 C 3.425781 -4.863281 3.5 -4.835938 3.5625 -4.796875 L 3.5625 -3.703125 C 3.46875 -3.742188 3.363281 -3.773438 3.25 -3.796875 C 3.144531 -3.816406 3.035156 -3.828125 2.921875 -3.828125 C 2.671875 -3.828125 2.441406 -3.765625 2.234375 -3.640625 C 2.035156 -3.515625 1.878906 -3.335938 1.765625 -3.109375 L 1.765625 0 Z M 0.5 0 "/></g></g></g><g fill="#0658f6" fill-opacity="1"><g transform="translate(291.846911, 210.014797)"><g><path d="M 2.84375 -1.015625 C 3.0625 -1.015625 3.265625 -1.054688 3.453125 -1.140625 C 3.640625 -1.222656 3.816406 -1.359375 3.984375 -1.546875 L 4.75 -0.765625 C 4.5 -0.492188 4.203125 -0.28125 3.859375 -0.125 C 3.515625 0.0195312 3.160156 0.09375 2.796875 0.09375 C 2.441406 0.09375 2.109375 0.03125 1.796875 -0.09375 C 1.492188 -0.226562 1.226562 -0.40625 1 -0.625 C 0.769531 -0.84375 0.59375 -1.101562 0.46875 -1.40625 C 0.34375 -1.71875 0.28125 -2.046875 0.28125 -2.390625 C 0.28125 -2.742188 0.34375 -3.070312 0.46875 -3.375 C 0.59375 -3.675781 0.769531 -3.941406 1 -4.171875 C 1.226562 -4.398438 1.492188 -4.578125 1.796875 -4.703125 C 2.109375 -4.828125 2.441406 -4.890625 2.796875 -4.890625 C 3.171875 -4.890625 3.535156 -4.8125 3.890625 -4.65625 C 4.242188 -4.507812 4.539062 -4.300781 4.78125 -4.03125 L 4.015625 -3.21875 C 3.835938 -3.40625 3.648438 -3.546875 3.453125 -3.640625 C 3.253906 -3.742188 3.046875 -3.796875 2.828125 -3.796875 C 2.460938 -3.796875 2.15625 -3.660156 1.90625 -3.390625 C 1.65625 -3.117188 1.53125 -2.785156 1.53125 -2.390625 C 1.53125 -2.003906 1.65625 -1.675781 1.90625 -1.40625 C 2.164062 -1.144531 2.476562 -1.015625 2.84375 -1.015625 Z M 2.84375 -1.015625 "/></g></g></g><g fill="#0658f6" fill-opacity="1"><g transform="translate(296.507305, 210.014797)"><g><path d="M 1.125 -5.375 C 0.925781 -5.375 0.753906 -5.441406 0.609375 -5.578125 C 0.472656 -5.722656 0.40625 -5.894531 0.40625 -6.09375 C 0.40625 -6.289062 0.472656 -6.457031 0.609375 -6.59375 C 0.753906 -6.738281 0.925781 -6.8125 1.125 -6.8125 C 1.320312 -6.8125 1.488281 -6.738281 1.625 -6.59375 C 1.769531 -6.457031 1.84375 -6.289062 1.84375 -6.09375 C 1.84375 -5.894531 1.769531 -5.722656 1.625 -5.578125 C 1.488281 -5.441406 1.320312 -5.375 1.125 -5.375 Z M 1.765625 -4.796875 L 1.765625 0 L 0.5 0 L 0.5 -4.796875 Z M 1.765625 -4.796875 "/></g></g></g><g fill="#0658f6" fill-opacity="1"><g transform="translate(298.514971, 210.014797)"><g><path d="M 0.5 0 L 0.5 -4.796875 L 1.765625 -4.796875 L 1.765625 -4.421875 C 1.941406 -4.578125 2.140625 -4.691406 2.359375 -4.765625 C 2.585938 -4.847656 2.835938 -4.890625 3.109375 -4.890625 C 3.660156 -4.890625 4.113281 -4.710938 4.46875 -4.359375 C 4.820312 -4.003906 5 -3.546875 5 -2.984375 L 5 0 L 3.75 0 L 3.75 -2.796875 C 3.75 -3.097656 3.65625 -3.34375 3.46875 -3.53125 C 3.289062 -3.71875 3.050781 -3.8125 2.75 -3.8125 C 2.539062 -3.8125 2.347656 -3.769531 2.171875 -3.6875 C 2.003906 -3.601562 1.867188 -3.484375 1.765625 -3.328125 L 1.765625 0 Z M 0.5 0 "/></g></g></g><g fill="#0658f6" fill-opacity="1"><g transform="translate(303.737235, 210.014797)"><g><path d="M 2.703125 0.03125 C 2.367188 0.03125 2.050781 -0.03125 1.75 -0.15625 C 1.457031 -0.289062 1.203125 -0.46875 0.984375 -0.6875 C 0.765625 -0.90625 0.59375 -1.164062 0.46875 -1.46875 C 0.34375 -1.769531 0.28125 -2.09375 0.28125 -2.4375 C 0.28125 -2.769531 0.34375 -3.082031 0.46875 -3.375 C 0.59375 -3.675781 0.765625 -3.9375 0.984375 -4.15625 C 1.210938 -4.382812 1.476562 -4.5625 1.78125 -4.6875 C 2.082031 -4.8125 2.40625 -4.875 2.75 -4.875 C 2.988281 -4.875 3.21875 -4.835938 3.4375 -4.765625 C 3.65625 -4.703125 3.859375 -4.609375 4.046875 -4.484375 L 4.046875 -4.796875 L 5.296875 -4.796875 L 5.296875 0 C 5.296875 0.632812 5.085938 1.125 4.671875 1.46875 C 4.265625 1.8125 3.675781 1.984375 2.90625 1.984375 C 2.539062 1.984375 2.1875 1.945312 1.84375 1.875 C 1.507812 1.800781 1.195312 1.691406 0.90625 1.546875 L 1.359375 0.5625 C 1.617188 0.6875 1.875 0.78125 2.125 0.84375 C 2.375 0.914062 2.628906 0.953125 2.890625 0.953125 C 3.265625 0.953125 3.546875 0.867188 3.734375 0.703125 C 3.929688 0.535156 4.03125 0.296875 4.03125 -0.015625 L 4.03125 -0.40625 C 3.84375 -0.257812 3.632812 -0.148438 3.40625 -0.078125 C 3.175781 -0.00390625 2.941406 0.03125 2.703125 0.03125 Z M 1.515625 -2.4375 C 1.515625 -2.050781 1.648438 -1.722656 1.921875 -1.453125 C 2.191406 -1.179688 2.519531 -1.046875 2.90625 -1.046875 C 3.132812 -1.046875 3.34375 -1.082031 3.53125 -1.15625 C 3.71875 -1.226562 3.882812 -1.332031 4.03125 -1.46875 L 4.03125 -3.359375 C 3.894531 -3.492188 3.726562 -3.597656 3.53125 -3.671875 C 3.332031 -3.753906 3.125 -3.796875 2.90625 -3.796875 C 2.519531 -3.796875 2.191406 -3.660156 1.921875 -3.390625 C 1.648438 -3.128906 1.515625 -2.8125 1.515625 -2.4375 Z M 1.515625 -2.4375 "/></g></g></g><g fill="#0658f6" fill-opacity="1"><g transform="translate(309.28188, 210.014797)"><g/></g></g><g fill="#0658f6" fill-opacity="1"><g transform="translate(310.893477, 210.014797)"><g><path d="M 0.5 1.921875 L 0.5 -4.796875 L 1.75 -4.796875 L 1.75 -4.40625 C 1.9375 -4.5625 2.144531 -4.675781 2.375 -4.75 C 2.613281 -4.832031 2.859375 -4.875 3.109375 -4.875 C 3.441406 -4.875 3.757812 -4.804688 4.0625 -4.671875 C 4.363281 -4.546875 4.625 -4.367188 4.84375 -4.140625 C 5.0625 -3.921875 5.234375 -3.660156 5.359375 -3.359375 C 5.484375 -3.054688 5.546875 -2.734375 5.546875 -2.390625 C 5.546875 -2.046875 5.476562 -1.722656 5.34375 -1.421875 C 5.21875 -1.128906 5.046875 -0.867188 4.828125 -0.640625 C 4.609375 -0.421875 4.347656 -0.25 4.046875 -0.125 C 3.742188 0 3.414062 0.0625 3.0625 0.0625 C 2.832031 0.0625 2.601562 0.03125 2.375 -0.03125 C 2.15625 -0.09375 1.953125 -0.1875 1.765625 -0.3125 L 1.765625 1.921875 Z M 2.90625 -3.78125 C 2.675781 -3.78125 2.460938 -3.742188 2.265625 -3.671875 C 2.066406 -3.597656 1.898438 -3.488281 1.765625 -3.34375 L 1.765625 -1.453125 C 1.898438 -1.316406 2.066406 -1.207031 2.265625 -1.125 C 2.460938 -1.039062 2.675781 -1 2.90625 -1 C 3.300781 -1 3.632812 -1.132812 3.90625 -1.40625 C 4.175781 -1.675781 4.3125 -2.003906 4.3125 -2.390625 C 4.3125 -2.785156 4.171875 -3.113281 3.890625 -3.375 C 3.617188 -3.644531 3.289062 -3.78125 2.90625 -3.78125 Z M 2.90625 -3.78125 "/></g></g></g><g fill="#0658f6" fill-opacity="1"><g transform="translate(316.474961, 210.014797)"><g><path d="M 2.015625 0.078125 C 1.503906 0.078125 1.082031 -0.0546875 0.75 -0.328125 C 0.425781 -0.597656 0.265625 -0.953125 0.265625 -1.390625 C 0.265625 -1.847656 0.4375 -2.203125 0.78125 -2.453125 C 1.132812 -2.710938 1.617188 -2.84375 2.234375 -2.84375 C 2.429688 -2.84375 2.628906 -2.828125 2.828125 -2.796875 C 3.023438 -2.765625 3.21875 -2.722656 3.40625 -2.671875 L 3.40625 -3 C 3.40625 -3.28125 3.316406 -3.488281 3.140625 -3.625 C 2.972656 -3.769531 2.722656 -3.84375 2.390625 -3.84375 C 2.191406 -3.84375 1.972656 -3.8125 1.734375 -3.75 C 1.492188 -3.6875 1.226562 -3.585938 0.9375 -3.453125 L 0.46875 -4.375 C 0.84375 -4.550781 1.207031 -4.679688 1.5625 -4.765625 C 1.914062 -4.847656 2.265625 -4.890625 2.609375 -4.890625 C 3.253906 -4.890625 3.753906 -4.734375 4.109375 -4.421875 C 4.472656 -4.117188 4.65625 -3.679688 4.65625 -3.109375 L 4.65625 0 L 3.40625 0 L 3.40625 -0.328125 C 3.207031 -0.191406 2.992188 -0.0859375 2.765625 -0.015625 C 2.546875 0.046875 2.296875 0.078125 2.015625 0.078125 Z M 1.46875 -1.421875 C 1.46875 -1.234375 1.546875 -1.085938 1.703125 -0.984375 C 1.867188 -0.878906 2.082031 -0.828125 2.34375 -0.828125 C 2.5625 -0.828125 2.753906 -0.851562 2.921875 -0.90625 C 3.097656 -0.957031 3.257812 -1.03125 3.40625 -1.125 L 3.40625 -1.84375 C 3.257812 -1.90625 3.097656 -1.945312 2.921875 -1.96875 C 2.753906 -2 2.578125 -2.015625 2.390625 -2.015625 C 2.109375 -2.015625 1.882812 -1.960938 1.71875 -1.859375 C 1.550781 -1.753906 1.46875 -1.609375 1.46875 -1.421875 Z M 1.46875 -1.421875 "/></g></g></g><g fill="#0658f6" fill-opacity="1"><g transform="translate(321.347214, 210.014797)"><g><path d="M 0.5 0 L 0.5 -4.796875 L 1.765625 -4.796875 L 1.765625 -4.28125 C 1.910156 -4.488281 2.09375 -4.644531 2.3125 -4.75 C 2.53125 -4.851562 2.773438 -4.90625 3.046875 -4.90625 C 3.160156 -4.90625 3.257812 -4.894531 3.34375 -4.875 C 3.425781 -4.863281 3.5 -4.835938 3.5625 -4.796875 L 3.5625 -3.703125 C 3.46875 -3.742188 3.363281 -3.773438 3.25 -3.796875 C 3.144531 -3.816406 3.035156 -3.828125 2.921875 -3.828125 C 2.671875 -3.828125 2.441406 -3.765625 2.234375 -3.640625 C 2.035156 -3.515625 1.878906 -3.335938 1.765625 -3.109375 L 1.765625 0 Z M 0.5 0 "/></g></g></g><g fill="#0658f6" fill-opacity="1"><g transform="translate(324.856258, 210.014797)"><g><path d="M 1.15625 -1.359375 L 1.15625 -3.75 L 0.171875 -3.75 L 0.171875 -4.796875 L 1.15625 -4.796875 L 1.15625 -6.03125 L 2.421875 -6.3125 L 2.421875 -4.796875 L 3.78125 -4.796875 L 3.78125 -3.75 L 2.421875 -3.75 L 2.421875 -1.609375 C 2.421875 -1.378906 2.46875 -1.21875 2.5625 -1.125 C 2.65625 -1.039062 2.828125 -1 3.078125 -1 C 3.191406 -1 3.300781 -1.003906 3.40625 -1.015625 C 3.507812 -1.035156 3.625 -1.066406 3.75 -1.109375 L 3.75 -0.078125 C 3.613281 -0.0351562 3.453125 0 3.265625 0.03125 C 3.078125 0.0625 2.914062 0.078125 2.78125 0.078125 C 2.238281 0.078125 1.832031 -0.0390625 1.5625 -0.28125 C 1.289062 -0.53125 1.15625 -0.890625 1.15625 -1.359375 Z M 1.15625 -1.359375 "/></g></g></g><g fill="#0658f6" fill-opacity="1"><g transform="translate(328.521881, 210.014797)"><g><path d="M 0.5 0 L 0.5 -4.796875 L 1.765625 -4.796875 L 1.765625 -4.421875 C 1.941406 -4.578125 2.140625 -4.691406 2.359375 -4.765625 C 2.585938 -4.847656 2.835938 -4.890625 3.109375 -4.890625 C 3.660156 -4.890625 4.113281 -4.710938 4.46875 -4.359375 C 4.820312 -4.003906 5 -3.546875 5 -2.984375 L 5 0 L 3.75 0 L 3.75 -2.796875 C 3.75 -3.097656 3.65625 -3.34375 3.46875 -3.53125 C 3.289062 -3.71875 3.050781 -3.8125 2.75 -3.8125 C 2.539062 -3.8125 2.347656 -3.769531 2.171875 -3.6875 C 2.003906 -3.601562 1.867188 -3.484375 1.765625 -3.328125 L 1.765625 0 Z M 0.5 0 "/></g></g></g><g fill="#0658f6" fill-opacity="1"><g transform="translate(333.744151, 210.014797)"><g><path d="M 4.796875 -0.59375 C 4.503906 -0.351562 4.203125 -0.175781 3.890625 -0.0625 C 3.578125 0.0390625 3.234375 0.09375 2.859375 0.09375 C 2.492188 0.09375 2.148438 0.03125 1.828125 -0.09375 C 1.515625 -0.226562 1.242188 -0.40625 1.015625 -0.625 C 0.785156 -0.84375 0.601562 -1.101562 0.46875 -1.40625 C 0.34375 -1.71875 0.28125 -2.046875 0.28125 -2.390625 C 0.28125 -2.734375 0.34375 -3.054688 0.46875 -3.359375 C 0.59375 -3.671875 0.765625 -3.9375 0.984375 -4.15625 C 1.203125 -4.382812 1.460938 -4.5625 1.765625 -4.6875 C 2.078125 -4.820312 2.40625 -4.890625 2.75 -4.890625 C 3.082031 -4.890625 3.394531 -4.820312 3.6875 -4.6875 C 3.976562 -4.550781 4.226562 -4.367188 4.4375 -4.140625 C 4.65625 -3.921875 4.820312 -3.648438 4.9375 -3.328125 C 5.0625 -3.015625 5.125 -2.671875 5.125 -2.296875 L 5.125 -1.96875 L 1.546875 -1.96875 C 1.628906 -1.664062 1.796875 -1.421875 2.046875 -1.234375 C 2.296875 -1.054688 2.582031 -0.96875 2.90625 -0.96875 C 3.113281 -0.96875 3.3125 -1 3.5 -1.0625 C 3.6875 -1.132812 3.84375 -1.234375 3.96875 -1.359375 Z M 2.71875 -3.84375 C 2.425781 -3.84375 2.175781 -3.753906 1.96875 -3.578125 C 1.757812 -3.398438 1.617188 -3.164062 1.546875 -2.875 L 3.890625 -2.875 C 3.804688 -3.15625 3.660156 -3.382812 3.453125 -3.5625 C 3.242188 -3.75 3 -3.84375 2.71875 -3.84375 Z M 2.71875 -3.84375 "/></g></g></g><g fill="#0658f6" fill-opacity="1"><g transform="translate(338.901946, 210.014797)"><g><path d="M 0.5 0 L 0.5 -4.796875 L 1.765625 -4.796875 L 1.765625 -4.28125 C 1.910156 -4.488281 2.09375 -4.644531 2.3125 -4.75 C 2.53125 -4.851562 2.773438 -4.90625 3.046875 -4.90625 C 3.160156 -4.90625 3.257812 -4.894531 3.34375 -4.875 C 3.425781 -4.863281 3.5 -4.835938 3.5625 -4.796875 L 3.5625 -3.703125 C 3.46875 -3.742188 3.363281 -3.773438 3.25 -3.796875 C 3.144531 -3.816406 3.035156 -3.828125 2.921875 -3.828125 C 2.671875 -3.828125 2.441406 -3.765625 2.234375 -3.640625 C 2.035156 -3.515625 1.878906 -3.335938 1.765625 -3.109375 L 1.765625 0 Z M 0.5 0 "/></g></g></g></svg>